<?xml version="1.0" encoding="UTF-8"?>
<svg version="1.1" xmlns="http://www.w3.org/2000/svg" width="867" height="222">
<path d="M0 0 C1.91832138 -0.00422974 1.91832138 -0.00422974 3.87539673 -0.00854492 C5.30584731 -0.00660032 6.73629775 -0.00455214 8.16674805 -0.00241089 C9.66279137 -0.00376487 11.15883436 -0.00554479 12.65487671 -0.00772095 C16.72914312 -0.01229561 20.80338433 -0.01050559 24.87765121 -0.00734186 C29.13197653 -0.00481843 33.38629961 -0.00715575 37.640625 -0.00872803 C44.78638091 -0.01054977 51.93212651 -0.00814329 59.07788086 -0.00338745 C67.35135252 0.00205518 75.62479954 0.00029253 83.89827061 -0.00521386 C90.98869571 -0.00974485 98.07911337 -0.0103956 105.16953945 -0.00777519 C109.41003766 -0.00621233 113.65052426 -0.00601887 117.89102173 -0.00931168 C121.87673731 -0.01219019 125.86242097 -0.01021507 129.84813309 -0.00441742 C131.3151405 -0.00308971 132.78215058 -0.00348412 134.24915695 -0.00568008 C136.24341489 -0.00839114 138.23767866 -0.00439716 140.23193359 0 C141.90995308 0.00056554 141.90995308 0.00056554 143.62187195 0.0011425 C146.1159668 0.12698364 146.1159668 0.12698364 147.1159668 1.12698364 C147.21001821 3.12130094 147.23339929 5.11897907 147.22949219 7.11550903 C147.22941666 8.39676163 147.22934113 9.67801422 147.22926331 10.99809265 C147.22415589 12.40694212 147.21893988 13.8157912 147.21362305 15.22463989 C147.21175882 16.65810599 147.21033494 18.09157272 147.20933533 19.52503967 C147.20551052 23.30458321 147.19568056 27.08408854 147.18463135 30.86361694 C147.17441643 34.71767663 147.16983753 38.57174246 147.16479492 42.42581177 C147.15405825 49.99288651 147.13698229 57.55992973 147.1159668 65.12698364 C143.30390458 65.93851559 139.84450989 66.24387302 135.94018555 66.22463989 C134.20478516 66.21980591 134.20478516 66.21980591 132.43432617 66.21487427 C131.23614258 66.20649536 130.03795898 66.19811646 128.8034668 66.18948364 C127.58594727 66.18497192 126.36842773 66.18046021 125.11401367 66.17581177 C122.11461454 66.16404942 119.11531591 66.1476119 116.1159668 66.12698364 C114.89497099 62.46399621 115.09597726 59.19677667 115.23706055 55.39651489 C115.27247704 54.27088387 115.27247704 54.27088387 115.30860901 53.12251282 C115.38512353 50.72797146 115.46920005 48.33376351 115.5534668 45.93948364 C115.60669973 44.31515095 115.65944005 42.69080203 115.71166992 41.06643677 C115.84072207 37.08640831 115.97655634 33.1066622 116.1159668 29.12698364 C114.97373657 29.28964218 113.83150635 29.45230072 112.65466309 29.61988831 C108.2513265 30.1674533 103.92932736 30.26156899 99.49682617 30.24050903 C98.26612396 30.24072807 98.26612396 30.24072807 97.01055908 30.24095154 C94.3269171 30.2402607 91.6433465 30.23250753 88.9597168 30.22463989 C87.08785032 30.22277276 85.21598335 30.22135025 83.34411621 30.22035217 C78.43854401 30.21655023 73.53300182 30.20673996 68.62744141 30.19564819 C62.73023092 30.18357648 56.83301035 30.17902077 50.93579102 30.17319489 C41.99582879 30.16352682 33.05593232 30.14435404 24.1159668 30.12698364 C24.1159668 48.93698364 24.1159668 67.74698364 24.1159668 87.12698364 C20.26531599 87.8971138 17.29692886 88.2553046 13.44799805 88.25979614 C12.39032227 88.26108521 11.33264648 88.26237427 10.24291992 88.26370239 C9.14915039 88.25983521 8.05538086 88.25596802 6.9284668 88.25198364 C5.8230957 88.25585083 4.71772461 88.25971802 3.57885742 88.26370239 C2.52504883 88.26241333 1.47124023 88.26112427 0.38549805 88.25979614 C-0.57767334 88.25866821 -1.54084473 88.25754028 -2.53320312 88.25637817 C-4.8840332 88.12698364 -4.8840332 88.12698364 -6.8840332 87.12698364 C-6.90715589 75.9312512 -6.92494791 64.7355244 -6.93584538 53.53977299 C-6.94107437 48.34170249 -6.9481723 43.14364828 -6.95947266 37.94558716 C-6.97030097 32.93356096 -6.97630992 27.92155046 -6.97891045 22.90951347 C-6.9807648 20.99286082 -6.9843856 19.07620907 -6.98976326 17.15956306 C-6.99697295 14.48470292 -6.99802418 11.80990851 -6.99755859 9.13504028 C-7.00115387 8.33447205 -7.00474915 7.53390381 -7.00845337 6.70907593 C-6.99576672 0.01819541 -6.56747327 0.00221342 0 0 Z " fill="#FDFDFD" transform="translate(90.884033203125,36.873016357421875)"/>
<path d="M0 0 C1.5631897 0.00785522 1.5631897 0.00785522 3.15795898 0.01586914 C4.28266602 0.0190918 5.40737305 0.02231445 6.56616211 0.02563477 C7.75016602 0.03401367 8.93416992 0.04239258 10.15405273 0.05102539 C11.34192383 0.05553711 12.52979492 0.06004883 13.75366211 0.06469727 C16.69967499 0.07652864 19.64558954 0.09301252 22.59155273 0.11352539 C23.6875951 54.37334952 23.6875951 54.37334952 23.71655273 73.98852539 C23.72332031 75.87099976 23.72332031 75.87099976 23.73022461 77.79150391 C23.72829102 78.90581787 23.72635742 80.02013184 23.72436523 81.16821289 C23.7232373 82.11164551 23.72210938 83.05507812 23.72094727 84.02709961 C23.59155273 86.11352539 23.59155273 86.11352539 22.59155273 87.11352539 C20.69327038 87.21009369 18.79134611 87.23539756 16.89060974 87.23377991 C15.65235443 87.23515457 14.41409912 87.23652924 13.13832092 87.23794556 C11.75350928 87.23440595 10.36869788 87.23077113 8.98388672 87.22705078 C7.53548179 87.22676892 6.08707672 87.22692663 4.63867188 87.22749329 C0.69462959 87.22778129 -3.24938254 87.22188419 -7.19341779 87.21491933 C-11.31074195 87.20868617 -15.42806674 87.20808202 -19.5453949 87.20689392 C-27.34750589 87.20378049 -35.14960294 87.19556695 -42.95170778 87.18554443 C-51.83185031 87.17438365 -60.71199348 87.16887293 -69.59214127 87.163849 C-87.86425119 87.15338435 -106.13634811 87.13578468 -124.40844727 87.11352539 C-124.97953906 81.31210404 -125.53532552 75.55932307 -125.52197266 69.72412109 C-125.52189713 68.60378983 -125.52182159 67.48345856 -125.52174377 66.32917786 C-125.51658249 65.16102036 -125.5114212 63.99286285 -125.50610352 62.78930664 C-125.50468857 61.56189255 -125.50327362 60.33447845 -125.5018158 59.06987 C-125.49626363 55.1885626 -125.48372022 51.30731505 -125.47094727 47.42602539 C-125.46592608 44.77823977 -125.46136426 42.13045324 -125.45727539 39.48266602 C-125.44716512 33.02624476 -125.42758057 26.56995128 -125.40844727 20.11352539 C-115.17844727 20.11352539 -104.94844727 20.11352539 -94.40844727 20.11352539 C-92.83679671 32.68672984 -93.40844727 45.44247352 -93.40844727 58.11352539 C-64.03844727 57.78352539 -34.66844727 57.45352539 -4.40844727 57.11352539 C-4.11905481 38.72896306 -4.11905481 38.72896306 -3.84033203 20.34423828 C-3.80222815 18.04987958 -3.76376066 15.75552687 -3.72485352 13.46118164 C-3.70837769 12.25715698 -3.69190186 11.05313232 -3.67492676 9.81262207 C-3.65474487 8.67578979 -3.63456299 7.53895752 -3.61376953 6.36767578 C-3.59822525 5.37506241 -3.58268097 4.38244904 -3.56666565 3.35975647 C-3.34619213 0.22968745 -3.1464628 0.14831274 0 0 Z " fill="#FDFDFD" transform="translate(130.408447265625,100.886474609375)"/>
<path d="M0 0 C1.21067139 -0.00459229 2.42134277 -0.00918457 3.66870117 -0.01391602 C11.9088629 0.00018902 20.03962236 0.43793256 28.25 1.125 C29.25611193 4.45477591 29.36027636 7.45073197 29.33229065 10.92095947 C29.32525116 12.1044397 29.31821167 13.28791992 29.31095886 14.50726318 C29.29801285 15.80198547 29.28506683 17.09670776 29.27172852 18.43066406 C29.26158204 19.8105437 29.25188877 21.19042673 29.24261475 22.5703125 C29.21617067 26.31380472 29.18338367 30.05721774 29.14946485 33.80064869 C29.11508524 37.71373046 29.08652931 41.62685459 29.05735779 45.53997803 C29.00123977 52.94890211 28.93987811 60.35777314 28.87663645 67.76663947 C28.80488901 76.20184895 28.73898121 84.63710088 28.67356598 93.07236147 C28.53887898 110.42329645 28.39685184 127.7741638 28.25 145.125 C24.92931624 146.23189459 22.45640821 146.25196412 18.95849609 146.25439453 C17.6606015 146.25754669 16.36270691 146.26069885 15.02548218 146.26394653 C13.60813361 146.26215702 12.19078534 146.26010613 10.7734375 146.2578125 C9.3228046 146.25848598 7.87217182 146.25945638 6.42153931 146.26071167 C3.38355432 146.26218561 0.34559875 146.26004319 -2.69238281 146.25537109 C-6.59443302 146.24966381 -10.49641459 146.25296102 -14.3984623 146.25894356 C-17.39234947 146.26254869 -20.38622023 146.26141099 -23.38010788 146.25881577 C-24.81948225 146.25814689 -26.25885809 146.25897356 -27.69823074 146.26129532 C-29.70458194 146.26382211 -31.71093834 146.25929107 -33.71728516 146.25439453 C-35.43245834 146.25320114 -35.43245834 146.25320114 -37.18228149 146.25198364 C-39.75 146.125 -39.75 146.125 -40.75 145.125 C-40.83713831 143.41727642 -40.85700007 141.70601351 -40.84765625 139.99609375 C-40.84515869 139.06466553 -40.84266113 138.1332373 -40.84008789 137.17358398 C-40.83098389 135.98192627 -40.82187988 134.79026855 -40.8125 133.5625 C-40.791875 129.788125 -40.77125 126.01375 -40.75 122.125 C-27.88 121.795 -15.01 121.465 -1.75 121.125 C-2.08 86.805 -2.41 52.485 -2.75 17.125 C-15.62 17.125 -28.49 17.125 -41.75 17.125 C-43.18316898 14.25866205 -42.88200361 11.75264499 -42.875 8.5625 C-42.87757812 7.38558594 -42.88015625 6.20867187 -42.8828125 4.99609375 C-42.75 2.125 -42.75 2.125 -41.75 1.125 C-40.17772176 0.9655155 -38.59854785 0.87340679 -37.01953125 0.80859375 C-35.49537598 0.74551025 -35.49537598 0.74551025 -33.94042969 0.68115234 C-32.26835449 0.62241943 -32.26835449 0.62241943 -30.5625 0.5625 C-29.41297852 0.5207666 -28.26345703 0.4790332 -27.07910156 0.43603516 C-18.05296552 0.13920249 -9.03075894 0.01876315 0 0 Z " fill="#FDFDFD" transform="translate(166.75,74.875)"/>
<path d="M0 0 C8.5880572 -0.02312635 17.17610149 -0.04091658 25.76418209 -0.05181217 C29.751572 -0.05704036 33.73894067 -0.06413684 37.72631836 -0.07543945 C41.57125114 -0.08627061 45.41616345 -0.09227732 49.26111031 -0.09487724 C50.73118983 -0.09673108 52.20126818 -0.10035091 53.67133904 -0.10573006 C55.72354467 -0.11294355 57.77566467 -0.11399081 59.82788086 -0.11352539 C61.58327431 -0.11685631 61.58327431 -0.11685631 63.37413025 -0.12025452 C66 0 66 0 67 1 C67.08713831 2.70772358 67.10700007 4.41898649 67.09765625 6.12890625 C67.09282227 7.68061523 67.09282227 7.68061523 67.08789062 9.26367188 C67.07532227 10.8965918 67.07532227 10.8965918 67.0625 12.5625 C67.05798828 13.65498047 67.05347656 14.74746094 67.04882812 15.87304688 C67.03699826 18.58208495 67.02051543 21.29101599 67 24 C63.72108075 25.63945963 60.09386466 25.12030178 56.4921875 25.09765625 C55.23125778 25.09553383 55.23125778 25.09553383 53.94485474 25.09336853 C51.25486725 25.08776237 48.56496241 25.07520886 45.875 25.0625 C44.05338662 25.05748579 42.23177193 25.05292275 40.41015625 25.04882812 C35.94007223 25.03779094 31.47005014 25.0205222 27 25 C27.02505615 26.0315773 27.0501123 27.0631546 27.07592773 28.12599182 C27.31327502 37.90751254 27.54869985 47.68907795 27.78230286 57.47068882 C27.90242406 62.49797938 28.02319309 67.52525253 28.14550781 72.55249023 C28.26379976 77.41541339 28.3803049 82.27837653 28.49563599 87.14137077 C28.53966276 88.98506092 28.58430422 90.8287365 28.62960815 92.67239571 C29.40739325 124.37971632 29.40739325 124.37971632 28 133 C29.09465576 132.99476318 30.18931152 132.98952637 31.31713867 132.98413086 C35.38923318 132.96599267 39.46132413 132.95453577 43.53344727 132.94506836 C45.29387005 132.9400483 47.05428868 132.9332309 48.81469727 132.92456055 C51.34913154 132.91239297 53.88351054 132.90674834 56.41796875 132.90234375 C57.20149216 132.89718246 57.98501556 132.89202118 58.7922821 132.88670349 C62.74884302 132.88629986 66.08228396 133.21645679 70 134 C70 138.95 70 143.9 70 149 C67.24491265 150.37754367 65.02891815 150.12721101 61.94555664 150.12939453 C60.67406265 150.13254669 59.40256866 150.13569885 58.09254456 150.13894653 C56.69841477 150.1371565 55.3042853 150.13510549 53.91015625 150.1328125 C52.48530562 150.13348592 51.0604551 150.13445627 49.63560486 150.13571167 C46.64711413 150.13718731 43.65865327 150.13503869 40.67016602 150.13037109 C36.83890685 150.12467904 33.00771781 150.12795032 29.17646122 150.13394356 C26.23310315 150.13755717 23.2897617 150.1364068 20.34640312 150.13381577 C18.93380157 150.13314845 17.5211985 150.13396812 16.10859871 150.13629532 C14.13367873 150.13883433 12.15875346 150.13427844 10.18383789 150.12939453 C8.49744957 150.12820114 8.49744957 150.12820114 6.7769928 150.12698364 C4 150 4 150 1 149 C0.82221809 138.41683166 0.65665469 127.83350087 0.5 117.25 C0.48812275 116.44801807 0.4762455 115.64603615 0.46400833 114.81975174 C0.06585587 87.69164895 -0.0901423 60.56841992 -0.0625 33.4375 C-0.06164398 32.59119522 -0.06078796 31.74489044 -0.05990601 30.87294006 C-0.04870629 20.58193646 -0.02892583 10.29096966 0 0 Z " fill="#FDFDFD" transform="translate(46,2)"/>
<path d="M0 0 C0.95519531 -0.03738281 1.91039062 -0.07476562 2.89453125 -0.11328125 C9.95508522 -0.20166092 9.95508522 -0.20166092 13.65234375 2.48046875 C15.91808257 5.60693517 18.08446817 8.74826451 20.0625 12.0625 C20.60100586 12.93358398 20.60100586 12.93358398 21.15039062 13.82226562 C23.75 18.10543155 23.75 18.10543155 23.75 20.375 C24.41 20.375 25.07 20.375 25.75 20.375 C25.75 21.365 25.75 22.355 25.75 23.375 C26.41 23.375 27.07 23.375 27.75 23.375 C29.2578125 25.23828125 29.2578125 25.23828125 30.875 27.6875 C31.41382813 28.48800781 31.95265625 29.28851563 32.5078125 30.11328125 C33.75 32.375 33.75 32.375 33.75 35.375 C34.41 35.375 35.07 35.375 35.75 35.375 C36.41 37.355 37.07 39.335 37.75 41.375 C38.41 41.375 39.07 41.375 39.75 41.375 C40.141875 42.261875 40.53375 43.14875 40.9375 44.0625 C42.87069868 47.96386327 42.87069868 47.96386327 47.75 52.375 C47.75 35.215 47.75 18.055 47.75 0.375 C55.01 0.375 62.27 0.375 69.75 0.375 C71.60581966 2.23081966 70.87004366 4.86898306 70.87442017 7.33786011 C70.86902725 8.62286911 70.86902725 8.62286911 70.86352539 9.93383789 C70.86367142 10.83131241 70.86381744 11.72878693 70.8639679 12.65345764 C70.86326842 15.63488134 70.85547441 18.6162434 70.84765625 21.59765625 C70.84579219 23.65888942 70.84436823 25.72012304 70.84336853 27.78135681 C70.83954237 33.2180401 70.82971126 38.65469686 70.81866455 44.09136963 C70.80845253 49.63447714 70.80387136 55.17758892 70.79882812 60.72070312 C70.78808908 71.60548043 70.77101149 82.49023802 70.75 93.375 C65.99902821 93.98456095 61.35907461 94.54896447 56.5625 94.625 C55.57894531 94.65078125 54.59539062 94.6765625 53.58203125 94.703125 C50.2001808 94.31129681 48.44846207 93.43531226 45.75 91.375 C44.23046875 89.28125 44.23046875 89.28125 42.9375 86.875 C40.82144025 83.13824309 38.57841811 79.68443217 36 76.25 C32.22554516 71.16457039 28.87034095 65.89115689 25.60253906 60.47216797 C21.94306511 54.4737595 17.93777137 49.13318564 13.75 43.375 C13.42 59.875 13.09 76.375 12.75 93.375 C4.20317403 94.03244815 -2.94233089 94.45716131 -11.25 93.375 C-11.2731219 81.39696441 -11.2909143 69.41893409 -11.30181217 57.44088078 C-11.30704134 51.87960589 -11.31413958 46.31834621 -11.32543945 40.75708008 C-11.33626715 35.39492581 -11.34227658 30.03278622 -11.34487724 24.67062187 C-11.34673171 22.61999722 -11.35035272 20.5693734 -11.35573006 18.51875496 C-11.36293893 15.65709797 -11.36399101 12.79550243 -11.36352539 9.93383789 C-11.36712067 9.07716522 -11.37071594 8.22049255 -11.37442017 7.33786011 C-11.3586023 -1.58532839 -7.90577151 0.11548936 0 0 Z " fill="#FCFCFC" transform="translate(355.25,64.625)"/>
<path d="M0 0 C5.4951855 -0.04986905 10.99023588 -0.08593921 16.4855957 -0.10986328 C18.35052794 -0.1198491 20.21544481 -0.13344246 22.08032227 -0.15087891 C53.64728311 -0.4383894 53.64728311 -0.4383894 63.26171875 7.98046875 C72.1505154 17.52647772 73.98360411 25.57221542 74.00390625 38.484375 C73.58869541 45.58070567 70.83441154 52.06061025 65.890625 57.1875 C63.97560621 58.87163 62.04024684 60.47108053 60 62 C60.50566623 66.9994171 62.89334791 70.24207796 65.6875 74.25 C66.13722168 74.9102417 66.58694336 75.5704834 67.05029297 76.25073242 C68.3597595 78.17214534 69.67857466 80.08679919 71 82 C72.21261576 83.7679036 73.42188287 85.53811861 74.625 87.3125 C75.32496094 88.32763672 75.32496094 88.32763672 76.0390625 89.36328125 C77 91 77 91 77 93 C71.31401066 94.29227031 65.89196518 93.90242274 60.125 93.5625 C59.15046875 93.51029297 58.1759375 93.45808594 57.171875 93.40429688 C54.78086598 93.27536992 52.39035574 93.14044056 50 93 C49.67 91.68 49.34 90.36 49 89 C48.34 89 47.68 89 47 89 C46.525625 88.113125 46.05125 87.22625 45.5625 86.3125 C43.0180871 81.81582848 40.00882298 77.63654179 36.99829102 73.44458008 C34 69.21269217 34 69.21269217 34 67 C30.7 67 27.4 67 24 67 C24.01160156 68.45792969 24.02320313 69.91585937 24.03515625 71.41796875 C24.0445376 73.34114455 24.05363743 75.26432174 24.0625 77.1875 C24.07087891 78.14720703 24.07925781 79.10691406 24.08789062 80.09570312 C24.09272461 81.49272461 24.09272461 81.49272461 24.09765625 82.91796875 C24.10551147 84.19837036 24.10551147 84.19837036 24.11352539 85.50463867 C23.99579323 88.09246747 23.57107044 90.47661953 23 93 C17.70346121 93.93959624 12.91331483 93.98841115 7.5625 93.5625 C6.83095703 93.51029297 6.09941406 93.45808594 5.34570312 93.40429688 C3.56331378 93.27615124 1.7815743 93.1390184 0 93 C-1.25260668 89.24217995 -1.13946024 85.74227707 -1.12939453 81.82836914 C-1.13114685 80.99554916 -1.13289917 80.16272919 -1.13470459 79.30467224 C-1.13911037 76.54814579 -1.13618931 73.79168337 -1.1328125 71.03515625 C-1.13348597 69.12088509 -1.13445635 67.20661401 -1.13571167 65.29234314 C-1.13718697 61.27830187 -1.13503969 57.26428283 -1.13037109 53.25024414 C-1.12467776 48.10418201 -1.12795137 42.95817207 -1.13394356 37.81211185 C-1.13755696 33.8581859 -1.13640692 29.90427232 -1.13381577 25.95034599 C-1.13314846 24.05292187 -1.13396808 22.15549662 -1.13629532 20.25807381 C-1.13883416 17.60569407 -1.13496362 14.95339883 -1.12939453 12.30102539 C-1.13141876 11.51595612 -1.13344299 10.73088684 -1.13552856 9.92202759 C-1.12198844 6.44180382 -0.93232092 3.34823382 0 0 Z M24 22 C22.98955205 25.03134384 22.94967051 26.74395943 23.12109375 29.88671875 C23.16943359 30.82451172 23.21777344 31.76230469 23.26757812 32.72851562 C23.32365234 33.70498047 23.37972656 34.68144531 23.4375 35.6875 C23.48970703 36.67556641 23.54191406 37.66363281 23.59570312 38.68164062 C23.72535306 41.12141676 23.86031742 43.56078105 24 46 C29.86580767 47.95526922 36.56885209 47.76503887 42.4375 45.8125 C46.34534721 43.82429703 48.03939395 42.9212121 50 39 C50.75143137 34.62324183 51.40295455 30.01427331 48.75390625 26.2109375 C45.106095 23.09983664 41.68656875 21.86701828 36.98828125 21.90234375 C36.23095703 21.90556641 35.47363281 21.90878906 34.69335938 21.91210938 C33.90767578 21.92048828 33.12199219 21.92886719 32.3125 21.9375 C31.51521484 21.94201172 30.71792969 21.94652344 29.89648438 21.95117188 C27.93095743 21.9629415 25.96546915 21.98087652 24 22 Z " fill="#FDFDFD" transform="translate(637,65)"/>
<path d="M0 0 C7.59 0 15.18 0 23 0 C23.76787214 3.8393607 24.13630642 6.8467908 24.17358398 10.68896484 C24.18707382 11.80717621 24.20056366 12.92538757 24.21446228 14.07748413 C24.22490067 15.27652374 24.23533905 16.47556335 24.24609375 17.7109375 C24.27902813 20.26042015 24.31223984 22.80989923 24.34570312 25.359375 C24.39311826 29.37074468 24.4379896 33.38209398 24.47680664 37.39355469 C24.51658435 41.27033294 24.56810962 45.14682037 24.62109375 49.0234375 C24.6295079 50.21842865 24.63792206 51.4134198 24.64659119 52.6446228 C24.73222956 58.43128911 24.86462658 63.58123369 27 69 C32.24878679 72.84911032 39.79433758 72.64754738 46 72 C50.56334204 69.79981723 52.87708065 67.55680153 55 63 C55.53658627 59.69631973 55.60846702 56.40474836 55.6875 53.0625 C55.72166016 52.05501709 55.75582031 51.04753418 55.79101562 50.00952148 C56.14255384 37.80702024 56.05356 25.59100912 55.96362305 13.38500977 C55.95711983 12.16666443 55.95711983 12.16666443 55.95048523 10.92370605 C55.9419838 9.3803824 55.92937597 7.83707458 55.91218567 6.29382324 C55.90380634 4.52899263 55.94651588 2.7640399 56 1 C57 0 57 0 59.22485352 -0.11352539 C60.18319092 -0.10828857 61.14152832 -0.10305176 62.12890625 -0.09765625 C63.68061523 -0.09282227 63.68061523 -0.09282227 65.26367188 -0.08789062 C66.35228516 -0.07951172 67.44089844 -0.07113281 68.5625 -0.0625 C70.2012207 -0.05573242 70.2012207 -0.05573242 71.87304688 -0.04882812 C74.58208495 -0.03699826 77.29101599 -0.02051543 80 0 C81.03182724 3.09548172 81.13277562 5.24512162 81.14526367 8.49023438 C81.15164352 9.61570679 81.15802338 10.7411792 81.16459656 11.90075684 C81.16570938 13.11944458 81.1668222 14.33813232 81.16796875 15.59375 C81.17296135 17.47930603 81.17296135 17.47930603 81.17805481 19.4029541 C81.18312424 22.06945317 81.18589511 24.73585042 81.18530273 27.40234375 C81.18520183 30.79005302 81.19877979 34.17754931 81.21607494 37.56520844 C81.23000282 40.82471385 81.22928776 44.08421892 81.23046875 47.34375 C81.23765427 48.5462439 81.24483978 49.74873779 81.25224304 50.9876709 C81.21811492 63.75192476 79.96242278 74.25228333 71.15625 83.97265625 C60.36077655 94.12274813 49.29280233 95.58210005 35.12890625 95.3125 C24.55118696 94.85251583 16.286536 90.64402717 9.09375 82.96484375 C-0.85715569 71.01110747 -1.16035008 58.4762131 -1.1328125 43.53515625 C-1.13376923 42.38003036 -1.13472595 41.22490448 -1.13571167 40.03477478 C-1.13638811 37.61196843 -1.13457146 35.18916022 -1.13037109 32.76635742 C-1.12498082 29.04927558 -1.13035179 25.33231268 -1.13671875 21.61523438 C-1.13605854 19.25520807 -1.13477858 16.89518183 -1.1328125 14.53515625 C-1.13483673 13.42270035 -1.13686096 12.31024445 -1.13894653 11.16407776 C-1.13579437 10.13548141 -1.13264221 9.10688507 -1.12939453 8.04711914 C-1.12859894 7.14240372 -1.12780334 6.23768829 -1.12698364 5.30555725 C-1 3 -1 3 0 0 Z " fill="#FDFCFC" transform="translate(535,65)"/>
<path d="M0 0 C1.084021 0.00523682 2.16804199 0.01047363 3.28491211 0.01586914 C4.45473633 0.0190918 5.62456055 0.02231445 6.82983398 0.02563477 C8.0615332 0.03401367 9.29323242 0.04239258 10.56225586 0.05102539 C12.41560547 0.05779297 12.41560547 0.05779297 14.30639648 0.06469727 C17.37089703 0.07652931 20.43530307 0.09301366 23.49975586 0.11352539 C27.61142848 7.57983589 30.45183521 15.33139646 33.12072754 23.40078735 C36.94538032 34.94749174 41.03574857 46.31593042 45.65600586 57.57055664 C50.43301682 69.22211145 54.64756325 81.12626764 58.49975586 93.11352539 C55.02276123 93.92219211 51.97813142 94.18901852 48.41772461 93.99243164 C47.48637695 93.9440918 46.5550293 93.89575195 45.59545898 93.84594727 C44.63575195 93.78987305 43.67604492 93.73379883 42.68725586 93.67602539 C41.70821289 93.62381836 40.72916992 93.57161133 39.72045898 93.51782227 C37.31319496 93.388652 34.90639948 93.25370896 32.49975586 93.11352539 C30.35230716 87.81648525 28.29225986 82.54356498 26.49975586 77.11352539 C25.63697021 77.11876221 24.77418457 77.12399902 23.88525391 77.12939453 C20.68164313 77.14644535 17.4780555 77.15897992 14.27441406 77.16845703 C12.88833861 77.17348316 11.50226845 77.18030505 10.11621094 77.18896484 C8.12298871 77.20110557 6.12972767 77.2062356 4.13647461 77.21118164 C2.93724365 77.21641846 1.7380127 77.22165527 0.50244141 77.22705078 C-2.50024414 77.11352539 -2.50024414 77.11352539 -5.50024414 76.11352539 C-5.68200195 76.83797852 -5.86375977 77.56243164 -6.05102539 78.30883789 C-8.97687965 89.56212352 -8.97687965 89.56212352 -11.50024414 93.11352539 C-16.76504589 94.54336951 -21.99682429 94.02837669 -27.37524414 93.67602539 C-28.25438477 93.62381836 -29.13352539 93.57161133 -30.03930664 93.51782227 C-32.19331913 93.38904978 -34.34684073 93.25211076 -36.50024414 93.11352539 C-36.08387695 91.86829102 -35.66750977 90.62305664 -35.23852539 89.34008789 C-34.03602126 85.73468886 -32.84833877 82.1247447 -31.66821289 78.51196289 C-28.375375 68.47282297 -25.00992685 58.54479148 -20.98461914 48.77368164 C-19.30165011 44.62383432 -17.73109074 40.44187781 -16.18774414 36.23852539 C-15.76295776 35.08187378 -15.76295776 35.08187378 -15.32958984 33.90185547 C-13.56259126 29.0682374 -11.82232918 24.22532601 -10.09008789 19.37915039 C-9.68121338 18.23687988 -9.27233887 17.09460938 -8.85107422 15.91772461 C-8.04212374 13.65472551 -7.23591233 11.39074517 -6.43261719 9.12573242 C-6.06563721 8.09818848 -5.69865723 7.07064453 -5.32055664 6.01196289 C-4.9932959 5.0907666 -4.66603516 4.16957031 -4.32885742 3.22045898 C-3.11799616 0.14157487 -3.11799616 0.14157487 0 0 Z M10.49975586 31.11352539 C10.25741211 31.65879883 10.01506836 32.20407227 9.76538086 32.76586914 C9.43022461 33.5199707 9.09506836 34.27407227 8.74975586 35.05102539 C8.3875293 35.87086914 8.02530273 36.69071289 7.65209961 37.53540039 C6.90886022 39.19824105 6.1519958 40.8550904 5.37866211 42.50415039 C3.43409953 46.69243902 1.85030346 50.43955732 1.49975586 55.11352539 C2.71404574 56.5574111 2.71404574 56.5574111 6.31616211 56.21118164 C7.89822268 56.20450628 9.48026745 56.19254415 11.06225586 56.17602539 C12.27171875 56.16925781 12.27171875 56.16925781 13.50561523 56.16235352 C15.50369342 56.15053057 17.50173369 56.13259453 19.49975586 56.11352539 C18.9939098 49.84388413 17.45003771 44.85560511 14.93725586 39.11352539 C14.60790039 38.33879883 14.27854492 37.56407227 13.93920898 36.76586914 C13.13506999 34.87789063 12.31868415 32.99513609 11.49975586 31.11352539 C11.16975586 31.11352539 10.83975586 31.11352539 10.49975586 31.11352539 Z " fill="#FCFCFC" transform="translate(761.500244140625,64.886474609375)"/>
<path d="M0 0 C0.6909375 0.35320312 1.381875 0.70640625 2.09375 1.0703125 C2.8465625 1.44414063 3.599375 1.81796875 4.375 2.203125 C4.9421875 2.48929687 5.509375 2.77546875 6.09375 3.0703125 C6.09375 3.7303125 6.09375 4.3903125 6.09375 5.0703125 C6.68671875 5.16183594 7.2796875 5.25335938 7.890625 5.34765625 C10.61909657 6.24263363 11.56500041 7.40937551 13.34375 9.6328125 C13.86453125 10.27347656 14.3853125 10.91414063 14.921875 11.57421875 C15.30859375 12.06792969 15.6953125 12.56164062 16.09375 13.0703125 C15.68382812 13.54082031 15.27390625 14.01132813 14.8515625 14.49609375 C14.31273437 15.11871094 13.77390625 15.74132812 13.21875 16.3828125 C12.68507813 16.99769531 12.15140625 17.61257812 11.6015625 18.24609375 C9.9297053 20.20529462 9.9297053 20.20529462 8.09375 23.0703125 C7.43375 23.0703125 6.77375 23.0703125 6.09375 23.0703125 C6.09375 23.7303125 6.09375 24.3903125 6.09375 25.0703125 C5.43375 25.0703125 4.77375 25.0703125 4.09375 25.0703125 C4.09375 25.7303125 4.09375 26.3903125 4.09375 27.0703125 C0.56904979 26.4287196 -1.78795897 24.93207102 -4.78125 23.0078125 C-11.28817652 19.34601984 -17.57750892 19.03332056 -24.90625 20.0703125 C-27.31746859 22.02665225 -27.31746859 22.02665225 -27.03125 25.6953125 C-26.99 26.8090625 -26.94875 27.9228125 -26.90625 29.0703125 C-26.38289063 29.17730469 -25.85953125 29.28429687 -25.3203125 29.39453125 C-22.16723181 30.27718976 -19.28035761 31.56945606 -16.28125 32.8828125 C-11.21964217 35.08627177 -6.13717785 37.20913238 -0.9921875 39.2109375 C1.09321572 40.07009238 3.08989572 41.03665011 5.09375 42.0703125 C5.09375 42.7303125 5.09375 43.3903125 5.09375 44.0703125 C5.97160156 44.20373047 5.97160156 44.20373047 6.8671875 44.33984375 C9.6779994 45.2619873 10.7931085 46.53102442 12.71875 48.7578125 C13.30914063 49.42167969 13.89953125 50.08554688 14.5078125 50.76953125 C18.95800686 57.22560139 18.79810679 64.52628052 18.09375 72.0703125 C16.31140473 79.58162471 10.16759372 84.75847644 4.09375 89.0703125 C-6.27878645 94.92349873 -20.98866668 94.7945862 -32.421875 92.3046875 C-35.03751128 91.38410043 -37.43978606 90.33181963 -39.90625 89.0703125 C-40.98712891 88.60238281 -40.98712891 88.60238281 -42.08984375 88.125 C-46.94703264 85.93972409 -51.29448321 83.02068242 -54.90625 79.0703125 C-54.90625 78.4103125 -54.90625 77.7503125 -54.90625 77.0703125 C-55.56625 77.0703125 -56.22625 77.0703125 -56.90625 77.0703125 C-55.53680898 74.12074722 -54.02794591 71.54562439 -51.90625 69.0703125 C-51.24625 69.0703125 -50.58625 69.0703125 -49.90625 69.0703125 C-49.90625 68.4103125 -49.90625 67.7503125 -49.90625 67.0703125 C-49.24625 67.0703125 -48.58625 67.0703125 -47.90625 67.0703125 C-47.65875 66.4515625 -47.41125 65.8328125 -47.15625 65.1953125 C-45.63383594 62.6072086 -44.77679111 61.9254737 -41.90625 61.0703125 C-39.4609375 62.30078125 -39.4609375 62.30078125 -36.78125 64.2578125 C-29.6503329 69.08782035 -22.65450752 71.91149111 -13.90625 71.0703125 C-10.58438829 70.15916714 -10.58438829 70.15916714 -7.90625 69.0703125 C-6.97244039 64.53890597 -6.97244039 64.53890597 -7.90625 60.0703125 C-10.66132726 58.94623299 -10.66132726 58.94623299 -13.90625 58.0703125 C-26.48127376 53.56290139 -39.29639288 48.68016962 -48.90625 39.0703125 C-48.90625 38.0803125 -48.90625 37.0903125 -48.90625 36.0703125 C-49.56625 36.0703125 -50.22625 36.0703125 -50.90625 36.0703125 C-53.80952268 27.541949 -53.81889408 20.66388885 -50.08203125 12.35546875 C-41.31535754 -4.68275092 -16.1513746 -7.07933627 0 0 Z " fill="#FCFCFC" transform="translate(499.90625,66.9296875)"/>
<path d="M0 0 C0.98484375 -0.00128906 1.9696875 -0.00257812 2.984375 -0.00390625 C4.02078125 -0.00003906 5.0571875 0.00382812 6.125 0.0078125 C7.67960937 0.00201172 7.67960937 0.00201172 9.265625 -0.00390625 C10.25046875 -0.00261719 11.2353125 -0.00132813 12.25 0 C13.16007812 0.00112793 14.07015625 0.00225586 15.0078125 0.00341797 C17.125 0.1328125 17.125 0.1328125 18.125 1.1328125 C18.22022418 3.99373068 18.25053326 6.83044871 18.23852539 9.69165039 C18.23867142 10.58912491 18.23881744 11.48659943 18.2389679 12.41127014 C18.23826842 15.39269384 18.23047441 18.3740559 18.22265625 21.35546875 C18.22079219 23.41670192 18.21936823 25.47793554 18.21836853 27.53916931 C18.21454237 32.9758526 18.20471126 38.41250936 18.19366455 43.84918213 C18.18345253 49.39228964 18.17887136 54.93540142 18.17382812 60.47851562 C18.16308908 71.36329293 18.14601149 82.24805052 18.125 93.1328125 C14.65235869 93.72981631 11.33950749 94.2710969 7.8125 94.2578125 C7.13574219 94.26039063 6.45898438 94.26296875 5.76171875 94.265625 C3.30693282 94.14197652 0.90174059 93.90143082 -1.53979492 93.62451172 C-2.35131516 93.53289764 -3.16283539 93.44128357 -3.99894714 93.34689331 C-4.61804459 93.27624664 -5.23714203 93.20559998 -5.875 93.1328125 C-5.8981219 81.15477691 -5.9159143 69.17674659 -5.92681217 57.19869328 C-5.93204134 51.63741839 -5.93913958 46.07615871 -5.95043945 40.51489258 C-5.96126715 35.15273831 -5.96727658 29.79059872 -5.96987724 24.42843437 C-5.97173171 22.37780972 -5.97535272 20.3271859 -5.98073006 18.27656746 C-5.98793893 15.41491047 -5.98899101 12.55331493 -5.98852539 9.69165039 C-5.99212067 8.83497772 -5.99571594 7.97830505 -5.99942017 7.09567261 C-5.98685504 0.00741997 -5.98685504 0.00741997 0 0 Z " fill="#FDFDFD" transform="translate(302.875,64.8671875)"/>
<path d="M0 0 C3.8124937 -0.02769268 7.62493734 -0.0467549 11.4375 -0.0625 C12.52611328 -0.07087891 13.61472656 -0.07925781 14.73632812 -0.08789062 C15.77080078 -0.09111328 16.80527344 -0.09433594 17.87109375 -0.09765625 C18.82943115 -0.10289307 19.78776855 -0.10812988 20.77514648 -0.11352539 C23 0 23 0 24 1 C24.09522418 3.86091818 24.12553326 6.69763621 24.11352539 9.55883789 C24.11367142 10.45631241 24.11381744 11.35378693 24.1139679 12.27845764 C24.11326842 15.25988134 24.10547441 18.2412434 24.09765625 21.22265625 C24.09579219 23.28388942 24.09436823 25.34512304 24.09336853 27.40635681 C24.08954237 32.8430401 24.07971126 38.27969686 24.06866455 43.71636963 C24.05845253 49.25947714 24.05387136 54.80258892 24.04882812 60.34570312 C24.03808908 71.23048231 24.02049149 82.1152348 24 93 C16.08 93 8.16 93 0 93 C-0.15377115 82.49858128 -0.30261069 71.99712358 -0.4429636 61.49551678 C-0.50834019 56.61830012 -0.57580913 51.74113176 -0.64819336 46.86401367 C-0.71807379 42.15025981 -0.7822836 37.43645861 -0.84269524 32.72257423 C-0.86662153 30.9313868 -0.89253133 29.14022464 -0.92053413 27.3490963 C-1.06271554 18.17306885 -1.17101433 9.12557884 0 0 Z " fill="#FDFDFD" transform="translate(838,65)"/>
<path d="M0 0 C0.66 0 1.32 0 2 0 C2.33 1.98 2.66 3.96 3 6 C2.34 5.67 1.68 5.34 1 5 C0.34 6.65 -0.32 8.3 -1 10 C-2.46726798 6.18510326 -1.43336419 3.70988378 0 0 Z " fill="#E4E1DF" transform="translate(771,92)"/>
</svg>
